<svg id="Layer_4" data-name="Layer 4" xmlns="http://www.w3.org/2000/svg" viewBox="0 0 64 32"><defs><style>.cls-1,.cls-2{fill:#fff;}.cls-1{stroke:#fff;stroke-miterlimit:10;}</style></defs><path class="cls-1" d="M.5,16h0A15.55,15.55,0,0,0,16,31.5H48A15.55,15.55,0,0,0,63.5,16h0A15.54,15.54,0,0,0,48,.5H16A15.54,15.54,0,0,0,.5,16ZM2,16A14,14,0,1,1,16,30,14,14,0,0,1,2,16Z"/><path class="cls-2" d="M20.56,22.4A10.86,10.86,0,0,1,9.64,11.61,10.64,10.64,0,0,1,11.24,6a10.76,10.76,0,0,0,5.68,20,10.94,10.94,0,0,0,9.32-5.18A11,11,0,0,1,20.56,22.4Z"/></svg>