<svg id="Layer_2" data-name="Layer 2" xmlns="http://www.w3.org/2000/svg" viewBox="0 0 64 32"><defs><style>.cls-1,.cls-2{fill:#fff;}.cls-1{stroke:#fff;stroke-miterlimit:10;}</style></defs><path class="cls-1" d="M48,.5H16A15.54,15.54,0,0,0,.5,16h0A15.55,15.55,0,0,0,16,31.5H48A15.55,15.55,0,0,0,63.5,16h0A15.54,15.54,0,0,0,48,.5ZM48,30A14,14,0,1,1,62,16,14,14,0,0,1,48,30Z"/><circle class="cls-2" cx="48" cy="16" r="6"/><path class="cls-2" d="M48,9a.69.69,0,0,0,.75-.6V3.6a.77.77,0,0,0-1.5,0V8.4A.69.69,0,0,0,48,9Z"/><path class="cls-2" d="M48,29a.69.69,0,0,0,.75-.6V23.6a.77.77,0,0,0-1.5,0v4.8A.69.69,0,0,0,48,29Z"/><path class="cls-2" d="M41,16a.69.69,0,0,0-.6-.75H35.6a.77.77,0,0,0,0,1.5h4.8A.69.69,0,0,0,41,16Z"/><path class="cls-2" d="M61,16a.69.69,0,0,0-.6-.75H55.6a.77.77,0,0,0,0,1.5h4.8A.69.69,0,0,0,61,16Z"/><path class="cls-2" d="M43.05,11.05a.69.69,0,0,0,.11-1l-3.4-3.4a.68.68,0,0,0-.95.11.68.68,0,0,0-.11,1l3.4,3.4A.69.69,0,0,0,43.05,11.05Z"/><path class="cls-2" d="M57.19,25.19a.68.68,0,0,0,.11-1l-3.4-3.4a.77.77,0,0,0-1.06,1.06l3.4,3.4A.68.68,0,0,0,57.19,25.19Z"/><path class="cls-2" d="M43.05,21a.69.69,0,0,0-.95-.11l-3.4,3.4a.77.77,0,0,0,1.06,1.06l3.4-3.4A.69.69,0,0,0,43.05,21Z"/><path class="cls-2" d="M57.19,6.81a.68.68,0,0,0-.95-.11l-3.4,3.4a.77.77,0,0,0,1.06,1.06l3.4-3.4A.68.68,0,0,0,57.19,6.81Z"/></svg>