<?xml version="1.0" encoding="UTF-8"?>
<!--!
Font Awesome Free 6.2.1 by @fontawesome - https://fontawesome.com
License - https://fontawesome.com/license/free (Icons: CC BY 4.0, Fonts: SIL OFL 1.1, Code: MIT License)
Copyright 2022 Fonticons, Inc.

+ https://lineicons.com/
-->
<svg xmlns="http://www.w3.org/2000/svg" style="display: none;">
  <symbol id="github" viewBox="0 0 496 512">
    <path d="M165.9 397.4c0 2-2.3 3.6-5.2 3.6-3.3.3-5.6-1.3-5.6-3.6 0-2 2.3-3.6 5.2-3.6 3-.3 5.6 1.3 5.6 3.6zm-31.1-4.5c-.7 2 1.3 4.3 4.3 4.9 2.6 1 5.6 0 6.2-2s-1.3-4.3-4.3-5.2c-2.6-.7-5.5.3-6.2 2.3zm44.2-1.7c-2.9.7-4.9 2.6-4.6 4.9.3 2 2.9 3.3 5.9 2.6 2.9-.7 4.9-2.6 4.6-4.6-.3-1.9-3-3.2-5.9-2.9zM244.8 8C106.1 8 0 113.3 0 252c0 110.9 69.8 205.8 169.5 239.2 12.8 2.3 17.3-5.6 17.3-12.1 0-6.2-.3-40.4-.3-61.4 0 0-70 15-84.7-29.8 0 0-11.4-29.1-27.8-36.6 0 0-22.9-15.7 1.6-15.4 0 0 24.9 2 38.6 25.8 21.9 38.6 58.6 27.5 72.9 20.9 2.3-16 8.8-27.1 16-33.7-55.9-6.2-112.3-14.3-112.3-110.5 0-27.5 7.6-41.3 23.6-58.9-2.6-6.5-11.1-33.3 2.6-67.9 20.9-6.5 69 27 69 27 20-5.6 41.5-8.5 62.8-8.5s42.8 2.9 62.8 8.5c0 0 48.1-33.6 69-27 13.7 34.7 5.2 61.4 2.6 67.9 16 17.7 25.8 31.5 25.8 58.9 0 96.5-58.9 104.2-114.8 110.5 9.2 7.9 17 22.9 17 46.4 0 33.7-.3 75.4-.3 83.6 0 6.5 4.6 14.4 17.3 12.1C428.2 457.8 496 362.9 496 252 496 113.3 383.5 8 244.8 8zM97.2 352.9c-1.3 1-1 3.3.7 5.2 1.6 1.6 3.9 2.3 5.2 1 1.3-1 1-3.3-.7-5.2-1.6-1.6-3.9-2.3-5.2-1zm-10.8-8.1c-.7 1.3.3 2.9 2.3 3.9 1.6 1 3.6.7 4.3-.7.7-1.3-.3-2.9-2.3-3.9-2-.6-3.6-.3-4.3.7zm32.4 35.6c-1.6 1.3-1 4.3 1.3 6.2 2.3 2.3 5.2 2.6 6.5 1 1.3-1.3.7-4.3-1.3-6.2-2.2-2.3-5.2-2.6-6.5-1zm-11.4-14.7c-1.6 1-1.6 3.6 0 5.9 1.6 2.3 4.3 3.3 5.6 2.3 1.6-1.3 1.6-3.9 0-6.2-1.4-2.3-4-3.3-5.6-2z"></path>
  </symbol>
  <symbol id="twitter" viewBox="0 0 512 512">
    <path d="M389.2 48h70.6L305.6 224.2 487 464H345L233.7 318.6 106.5 464H35.8L200.7 275.5 26.8 48H172.4L272.9 180.9 389.2 48zM364.4 421.8h39.1L151.1 88h-42L364.4 421.8z"/>
  </symbol>
  <symbol id="youtube" viewBox="0 0 576 512">
    <path d="M549.655 124.083c-6.281-23.65-24.787-42.276-48.284-48.597C458.781 64 288 64 288 64S117.22 64 74.629 75.486c-23.497 6.322-42.003 24.947-48.284 48.597-11.412 42.867-11.412 132.305-11.412 132.305s0 89.438 11.412 132.305c6.281 23.65 24.787 41.5 48.284 47.821C117.22 448 288 448 288 448s170.78 0 213.371-11.486c23.497-6.321 42.003-24.171 48.284-47.821 11.412-42.867 11.412-132.305 11.412-132.305s0-89.438-11.412-132.305zm-317.51 213.508V175.185l142.739 81.205-142.739 81.201z"></path>
  </symbol>
  <symbol id="graduation-cap" viewBox="0 0 640 512">
    <path d="M320 32c-8.1 0-16.1 1.4-23.7 4.1L15.8 137.4C6.3 140.9 0 149.9 0 160s6.3 19.1 15.8 22.6l57.9 20.9C57.3 229.3 48 259.8 48 291.9v28.1c0 28.4-10.8 57.7-22.3 80.8c-6.5 13-13.9 25.8-22.5 37.6C0 442.7-.9 448.3 .9 453.4s6 8.9 11.2 10.2l64 16c4.2 1.1 8.7 .3 12.4-2s6.3-6.1 7.1-10.4c8.6-42.8 4.3-81.2-2.1-108.7C90.3 344.3 86 329.8 80 316.5V291.9c0-30.2 10.2-58.7 27.9-81.5c12.9-15.5 29.6-28 49.2-35.7l157-61.7c8.2-3.2 17.5 .8 20.7 9s-.8 17.5-9 20.7l-157 61.7c-12.4 4.9-23.3 12.4-32.2 21.6l159.6 57.6c7.6 2.7 15.6 4.1 23.7 4.1s16.1-1.4 23.7-4.1L624.2 182.6c9.5-3.4 15.8-12.5 15.8-22.6s-6.3-19.1-15.8-22.6L343.7 36.1C336.1 33.4 328.1 32 320 32zM128 408c0 35.3 86 72 192 72s192-36.7 192-72L496.7 262.6 354.5 314c-11.1 4-22.8 6-34.5 6s-23.5-2-34.5-6L143.3 262.6 128 408z"></path>
  </symbol>
  <symbol id="researchgate" viewBox="0 0 448 512">
    <path d="M0 32v448h448V32H0zm262.2 334.4c-6.6 3-33.2 6-50-14.2-9.2-10.6-25.3-33.3-42.2-63.6-8.9 0-14.7 0-21.4-.6v46.4c0 23.5 6 21.2 25.8 23.9v8.1c-6.9-.3-23.1-.8-35.6-.8-13.1 0-26.1.6-33.6.8v-8.1c15.5-2.9 22-1.3 22-23.9V225c0-22.6-6.4-21-22-23.9V193c25.8 1 53.1-.6 70.9-.6 31.7 0 55.9 14.4 55.9 45.6 0 21.1-16.7 42.2-39.2 47.5 13.6 24.2 30 45.6 42.2 58.9 7.2 7.8 17.2 14.7 27.2 14.7v7.3zm22.9-135c-23.3 0-32.2-15.7-32.2-32.2V167c0-12.2 8.8-30.4 34-30.4s30.4 17.9 30.4 17.9l-10.7 7.2s-5.5-12.5-19.7-12.5c-7.9 0-19.7 7.3-19.7 19.7v26.8c0 13.4 6.6 23.3 17.9 23.3 14.1 0 21.5-10.9 21.5-26.8h-17.9v-10.7h30.4c0 20.5 4.7 49.9-34 49.9zm-116.5 44.7c-9.4 0-13.6-.3-20-.8v-69.7c6.4-.6 15-.6 22.5-.6 23.3 0 37.2 12.2 37.2 34.5 0 21.9-15 36.6-39.7 36.6z"></path>
  </symbol>
  <symbol id="stack-overflow" viewBox="0 0 384 512">
    <path d="M290.7 311L95 269.7 86.8 309l195.7 41zm51-87L188.2 95.7l-25.5 30.8 153.5 128.3zm-31.2 39.7L129.2 179l-16.7 36.5L293.7 300zM262 32l-32 24 119.3 160.3 32-24zm20.5 328h-200v39.7h200zm39.7 80H42.7V320h-40v160h359.5V320h-40z"></path>
  </symbol>
  <symbol id="circle-h" viewBox="0 0 512 512">
    <path d="M256 512c141.4 0 256-114.6 256-256S397.4 0 256 0S0 114.6 0 256S114.6 512 256 512zM368 152V256 360c0 13.3-10.7 24-24 24s-24-10.7-24-24V280H192l0 80c0 13.3-10.7 24-24 24s-24-10.7-24-24l0-208c0-13.3 10.7-24 24-24s24 10.7 24 24v80H320V152c0-13.3 10.7-24 24-24s24 10.7 24 24z"></path>
  </symbol>
  <symbol id="linkedin-in" viewBox="0 0 448 512">
    <path d="M100.28 448H7.4V148.9h92.88zM53.79 108.1C24.09 108.1 0 83.5 0 53.8a53.79 53.79 0 0 1 107.58 0c0 29.7-24.1 54.3-53.79 54.3zM447.9 448h-92.68V302.4c0-34.7-.7-79.2-48.29-79.2-48.29 0-55.69 37.7-55.69 76.7V448h-92.78V148.9h89.08v40.8h1.3c12.4-23.5 42.69-48.3 87.88-48.3 94 0 111.28 61.9 111.28 142.3V448z"></path>
  </symbol>
  <symbol id="amazon" viewBox="0 0 448 512">
    <path d="M257.2 162.7c-48.7 1.8-169.5 15.5-169.5 117.5 0 109.5 138.3 114 183.5 43.2 6.5 10.2 35.4 37.5 45.3 46.8l56.8-56S341 288.9 341 261.4V114.3C341 89 316.5 32 228.7 32 140.7 32 94 87 94 136.3l73.5 6.8c16.3-49.5 54.2-49.5 54.2-49.5 40.7-.1 35.5 29.8 35.5 69.1zm0 86.8c0 80-84.2 68-84.2 17.2 0-47.2 50.5-56.7 84.2-57.8v40.6zm136 163.5c-7.7 10-70 67-174.5 67S34.2 408.5 9.7 379c-6.8-7.7 1-11.3 5.5-8.3C88.5 415.2 203 488.5 387.7 401c7.5-3.7 13.3 2 5.5 12zm39.8 2.2c-6.5 15.8-16 26.8-21.2 31-5.5 4.5-9.5 2.7-6.5-3.8s19.3-46.5 12.7-55c-6.5-8.3-37-4.3-48-3.2-10.8 1-13 2-14-.3-2.3-5.7 21.7-15.5 37.5-17.5 15.7-1.8 41-.8 46 5.7 3.7 5.1 0 27.1-6.5 43.1z"></path>
  </symbol>
  <symbol id="goodreads" viewBox="0 0 448 512">
    <path d="M299.9 191.2c5.1 37.3-4.7 79-35.9 100.7-22.3 15.5-52.8 14.1-70.8 5.7-37.1-17.3-49.5-58.6-46.8-97.2 4.3-60.9 40.9-87.9 75.3-87.5 46.9-.2 71.8 31.8 78.2 78.3zM448 88v336c0 30.9-25.1 56-56 56H56c-30.9 0-56-25.1-56-56V88c0-30.9 25.1-56 56-56h336c30.9 0 56 25.1 56 56zM330 313.2s-.1-34-.1-217.3h-29v40.3c-.8.3-1.2-.5-1.6-1.2-9.6-20.7-35.9-46.3-76-46-51.9.4-87.2 31.2-100.6 77.8-4.3 14.9-5.8 30.1-5.5 45.6 1.7 77.9 45.1 117.8 112.4 115.2 28.9-1.1 54.5-17 69-45.2.5-1 1.1-1.9 1.7-2.9.2.1.4.1.6.2.3 3.8.2 30.7.1 34.5-.2 14.8-2 29.5-7.2 43.5-7.8 21-22.3 34.7-44.5 39.5-17.8 3.9-35.6 3.8-53.2-1.2-21.5-6.1-36.5-19-41.1-41.8-.3-1.6-1.3-1.3-2.3-1.3h-26.8c.8 10.6 3.2 20.3 8.5 29.2 24.2 40.5 82.7 48.5 128.2 37.4 49.9-12.3 67.3-54.9 67.4-106.3z"></path>
  </symbol>
  <symbol id="rss" viewBox="0 0 448 512">
    <path d="M0 64C0 46.3 14.3 32 32 32c229.8 0 416 186.2 416 416c0 17.7-14.3 32-32 32s-32-14.3-32-32C384 253.6 226.4 96 32 96C14.3 96 0 81.7 0 64zM128 416c0 35.3-28.7 64-64 64s-64-28.7-64-64s28.7-64 64-64s64 28.7 64 64zM32 160c159.1 0 288 128.9 288 288c0 17.7-14.3 32-32 32s-32-14.3-32-32c0-123.7-100.3-224-224-224c-17.7 0-32-14.3-32-32s14.3-32 32-32z"></path>
  </symbol>
  <symbol id="calendar" viewBox="0 0 64 64"> <!-- lineicons / calendar -->
    <g>
      <path d="M20.5,36.6h-3.1c-0.6,0-1,0.4-1,1v3c0,0.6,0.4,1,1,1h3.1c0.6,0,1-0.4,1-1v-3C21.5,37.1,21,36.6,20.5,36.6z"/>
      <path d="M33.5,36.6h-3.1c-0.6,0-1,0.4-1,1v3c0,0.6,0.4,1,1,1h3.1c0.6,0,1-0.4,1-1v-3C34.5,37.1,34.1,36.6,33.5,36.6z"/>
      <path d="M46.6,36.6h-3.1c-0.6,0-1,0.4-1,1v3c0,0.6,0.4,1,1,1h3.1c0.6,0,1-0.4,1-1v-3C47.6,37.1,47.2,36.6,46.6,36.6z"/>
      <path d="M20.5,49.5h-3.1c-0.6,0-1,0.4-1,1v3c0,0.6,0.4,1,1,1h3.1c0.6,0,1-0.4,1-1v-3C21.5,50,21,49.5,20.5,49.5z"/>
      <path d="M33.5,49.5h-3.1c-0.6,0-1,0.4-1,1v3c0,0.6,0.4,1,1,1h3.1c0.6,0,1-0.4,1-1v-3C34.5,50,34.1,49.5,33.5,49.5z"/>
      <path d="M46.6,49.5h-3.1c-0.6,0-1,0.4-1,1v3c0,0.6,0.4,1,1,1h3.1c0.6,0,1-0.4,1-1v-3C47.6,50,47.2,49.5,46.6,49.5z"/>
      <path d="M56,15.4H34.3v-1.9c2.3-0.9,3.9-3.1,3.9-5.7c0-3.4-2.8-6.1-6.2-6.1s-6.2,2.7-6.2,6.1c0,2.6,1.6,4.8,3.9,5.7v1.9H8
        c-3.4,0-6.3,2.8-6.3,6.3V56c0,3.4,2.8,6.3,6.3,6.3h48c3.4,0,6.3-2.8,6.3-6.3V21.6C62.3,18.2,59.4,15.4,56,15.4z M32,6.2
        c0.9,0,1.7,0.7,1.7,1.6c0,0.9-0.7,1.6-1.7,1.6s-1.7-0.7-1.7-1.6C30.3,6.9,31.1,6.2,32,6.2z M8,19.9h48c1,0,1.8,0.8,1.8,1.8v6.2H6.3
        v-6.2C6.3,20.6,7,19.9,8,19.9z M56,57.8H8c-1,0-1.8-0.8-1.8-1.8V32.3h51.5V56C57.8,57,57,57.8,56,57.8z"/>
    </g>
  </symbol>
  <symbol id="tag" viewBox="0 0 64 64"> <!-- lineicons / tag -->
    <path d="M57.4,16.3c0-2.3-1.9-4.1-4.2-4.2L44.4,12C40.2,5.6,32.7-0.7,21.3,1.1c-1.2,0.2-2.1,1.3-1.9,2.6c0.2,1.2,1.3,2.1,2.6,1.9
	c8-1.3,13.4,2.4,16.7,6.4l-6.3-0.1c0,0-0.1,0-0.1,0c-1.1,0-2.2,0.5-3,1.2L8.1,34.2c-1.2,1.2-1.8,2.7-1.8,4.4s0.6,3.2,1.8,4.4
	l18.3,18.3c1.2,1.2,2.8,1.8,4.4,1.8s3.2-0.6,4.4-1.8l21.2-21.2c0,0,0,0,0,0c0.8-0.8,1.3-1.9,1.2-3.1L57.4,16.3z M32.1,58.2
	c-0.7,0.7-1.8,0.7-2.5,0L11.3,39.9c-0.3-0.3-0.5-0.8-0.5-1.2c0-0.5,0.2-0.9,0.5-1.2l21.2-21.2l9.4,0.2c0.4,0.8,0.7,1.5,1,2.1
	c-1.7,1-2.8,2.9-2.8,5c0,3.2,2.6,5.8,5.8,5.8s5.8-2.6,5.8-5.8c0-2.7-1.8-4.9-4.3-5.6c-0.2-0.4-0.3-0.9-0.5-1.3l6,0.1l0.4,20.4
	L32.1,58.2z M45.8,22.1c0.7,0,1.3,0.6,1.3,1.3s-0.6,1.3-1.3,1.3s-1.3-0.6-1.3-1.3S45.1,22.1,45.8,22.1z"/>
  </symbol>
  <symbol id="house-chimney" viewBox="0 0 576 512">
    <path d="M543.8 287.6c17 0 32-14 32-32.1c1-9-3-17-11-24L512 185V64c0-17.7-14.3-32-32-32H448c-17.7 0-32 14.3-32 32v36.7L309.5 7c-6-5-14-7-21-7s-15 1-22 8L10 231.5c-7 7-10 15-10 24c0 18 14 32.1 32 32.1h32v69.7c-.1 .9-.1 1.8-.1 2.8V472c0 22.1 17.9 40 40 40h16c1.2 0 2.4-.1 3.6-.2c1.5 .1 3 .2 4.5 .2H160h24c22.1 0 40-17.9 40-40V448 384c0-17.7 14.3-32 32-32h64c17.7 0 32 14.3 32 32v64 24c0 22.1 17.9 40 40 40h24 32.5c1.4 0 2.8 0 4.2-.1c1.1 .1 2.2 .1 3.3 .1h16c22.1 0 40-17.9 40-40V455.8c.3-2.6 .5-5.3 .5-8.1l-.7-160.2h32z"></path>
  </symbol>
  <symbol id="reddit" viewBox="0 0 512 512">
    <path d="M201.5 305.5c-13.8 0-24.9-11.1-24.9-24.6 0-13.8 11.1-24.9 24.9-24.9 13.6 0 24.6 11.1 24.6 24.9 0 13.6-11.1 24.6-24.6 24.6zM504 256c0 137-111 248-248 248S8 393 8 256 119 8 256 8s248 111 248 248zm-132.3-41.2c-9.4 0-17.7 3.9-23.8 10-22.4-15.5-52.6-25.5-86.1-26.6l17.4-78.3 55.4 12.5c0 13.6 11.1 24.6 24.6 24.6 13.8 0 24.9-11.3 24.9-24.9s-11.1-24.9-24.9-24.9c-9.7 0-18 5.8-22.1 13.8l-61.2-13.6c-3-.8-6.1 1.4-6.9 4.4l-19.1 86.4c-33.2 1.4-63.1 11.3-85.5 26.8-6.1-6.4-14.7-10.2-24.1-10.2-34.9 0-46.3 46.9-14.4 62.8-1.1 5-1.7 10.2-1.7 15.5 0 52.6 59.2 95.2 132 95.2 73.1 0 132.3-42.6 132.3-95.2 0-5.3-.6-10.8-1.9-15.8 31.3-16 19.8-62.5-14.9-62.5zM302.8 331c-18.2 18.2-76.1 17.9-93.6 0-2.2-2.2-6.1-2.2-8.3 0-2.5 2.5-2.5 6.4 0 8.6 22.8 22.8 87.3 22.8 110.2 0 2.5-2.2 2.5-6.1 0-8.6-2.2-2.2-6.1-2.2-8.3 0zm7.7-75c-13.6 0-24.6 11.1-24.6 24.9 0 13.6 11.1 24.6 24.6 24.6 13.8 0 24.9-11.1 24.9-24.6 0-13.8-11-24.9-24.9-24.9z"></path>
  </symbol>
  <symbol id="hacker-news" viewBox="0 0 448 512">
    <path d="M0 32v448h448V32H0zm21.2 197.2H21c.1-.1.2-.3.3-.4 0 .1 0 .3-.1.4zm218 53.9V384h-31.4V281.3L128 128h37.3c52.5 98.3 49.2 101.2 59.3 125.6 12.3-27 5.8-24.4 60.6-125.6H320l-80.8 155.1z"></path>
  </symbol>
  <symbol id="get-pocket" viewBox="0 0 448 512">
    <path d="M407.6 64h-367C18.5 64 0 82.5 0 104.6v135.2C0 364.5 99.7 464 224.2 464c124 0 223.8-99.5 223.8-224.2V104.6c0-22.4-17.7-40.6-40.4-40.6zm-162 268.5c-12.4 11.8-31.4 11.1-42.4 0C89.5 223.6 88.3 227.4 88.3 209.3c0-16.9 13.8-30.7 30.7-30.7 17 0 16.1 3.8 105.2 89.3 90.6-86.9 88.6-89.3 105.5-89.3 16.9 0 30.7 13.8 30.7 30.7 0 17.8-2.9 15.7-114.8 123.2z"></path>
  </symbol>
  <symbol id="file-pdf" viewBox="0 0 384 512">
    <path d="M64 0C28.7 0 0 28.7 0 64V448c0 35.3 28.7 64 64 64H320c35.3 0 64-28.7 64-64V160H256c-17.7 0-32-14.3-32-32V0H64zM256 0V128H384L256 0zM64 224H88c30.9 0 56 25.1 56 56s-25.1 56-56 56H80v32c0 8.8-7.2 16-16 16s-16-7.2-16-16V320 240c0-8.8 7.2-16 16-16zm24 80c13.3 0 24-10.7 24-24s-10.7-24-24-24H80v48h8zm72-64c0-8.8 7.2-16 16-16h24c26.5 0 48 21.5 48 48v64c0 26.5-21.5 48-48 48H176c-8.8 0-16-7.2-16-16V240zm32 112h8c8.8 0 16-7.2 16-16V272c0-8.8-7.2-16-16-16h-8v96zm96-128h48c8.8 0 16 7.2 16 16s-7.2 16-16 16H304v32h32c8.8 0 16 7.2 16 16s-7.2 16-16 16H304v48c0 8.8-7.2 16-16 16s-16-7.2-16-16V304 240c0-8.8 7.2-16 16-16z"></path>
  </symbol>
  <symbol id="slideshare" viewBox="0 0 512 512">
    <path d="M187.7 153.7c-34 0-61.7 25.7-61.7 57.7 0 31.7 27.7 57.7 61.7 57.7s61.7-26 61.7-57.7c0-32-27.7-57.7-61.7-57.7zm143.4 0c-34 0-61.7 25.7-61.7 57.7 0 31.7 27.7 57.7 61.7 57.7 34.3 0 61.7-26 61.7-57.7.1-32-27.4-57.7-61.7-57.7zm156.6 90l-6 4.3V49.7c0-27.4-20.6-49.7-46-49.7H76.6c-25.4 0-46 22.3-46 49.7V248c-2-1.4-4.3-2.9-6.3-4.3-15.1-10.6-25.1 4-16 17.7 18.3 22.6 53.1 50.3 106.3 72C58.3 525.1 252 555.7 248.9 457.5c0-.7.3-56.6.3-96.6 5.1 1.1 9.4 2.3 13.7 3.1 0 39.7.3 92.8.3 93.5-3.1 98.3 190.6 67.7 134.3-124 53.1-21.7 88-49.4 106.3-72 9.1-13.8-.9-28.3-16.1-17.8zm-30.5 19.2c-68.9 37.4-128.3 31.1-160.6 29.7-23.7-.9-32.6 9.1-33.7 24.9-10.3-7.7-18.6-15.5-20.3-17.1-5.1-5.4-13.7-8-27.1-7.7-31.7 1.1-89.7 7.4-157.4-28V72.3c0-34.9 8.9-45.7 40.6-45.7h317.7c30.3 0 40.9 12.9 40.9 45.7v190.6z"></path>
  </symbol>
  <symbol id="camera-retro" viewBox="0 0 512 512">
    <path d="M220.6 121.2L271.1 96 448 96v96H333.2c-21.9-15.1-48.5-24-77.2-24s-55.2 8.9-77.2 24H64V128H192c9.9 0 19.7-2.3 28.6-6.8zM0 128V416c0 35.3 28.7 64 64 64H448c35.3 0 64-28.7 64-64V96c0-35.3-28.7-64-64-64H271.1c-9.9 0-19.7 2.3-28.6 6.8L192 64H160V48c0-8.8-7.2-16-16-16H80c-8.8 0-16 7.2-16 16l0 16C28.7 64 0 92.7 0 128zM344 304c0 48.6-39.4 88-88 88s-88-39.4-88-88s39.4-88 88-88s88 39.4 88 88z"></path>
  </symbol>
  <symbol id="building" viewBox="0 0 384 512">
    <path d="M48 0C21.5 0 0 21.5 0 48V464c0 26.5 21.5 48 48 48h96V432c0-26.5 21.5-48 48-48s48 21.5 48 48v80h96c26.5 0 48-21.5 48-48V48c0-26.5-21.5-48-48-48H48zM64 240c0-8.8 7.2-16 16-16h32c8.8 0 16 7.2 16 16v32c0 8.8-7.2 16-16 16H80c-8.8 0-16-7.2-16-16V240zm112-16h32c8.8 0 16 7.2 16 16v32c0 8.8-7.2 16-16 16H176c-8.8 0-16-7.2-16-16V240c0-8.8 7.2-16 16-16zm80 16c0-8.8 7.2-16 16-16h32c8.8 0 16 7.2 16 16v32c0 8.8-7.2 16-16 16H272c-8.8 0-16-7.2-16-16V240zM80 96h32c8.8 0 16 7.2 16 16v32c0 8.8-7.2 16-16 16H80c-8.8 0-16-7.2-16-16V112c0-8.8 7.2-16 16-16zm80 16c0-8.8 7.2-16 16-16h32c8.8 0 16 7.2 16 16v32c0 8.8-7.2 16-16 16H176c-8.8 0-16-7.2-16-16V112zM272 96h32c8.8 0 16 7.2 16 16v32c0 8.8-7.2 16-16 16H272c-8.8 0-16-7.2-16-16V112c0-8.8 7.2-16 16-16z"></path>
  </symbol>
  <symbol id="orcid" viewBox="0 0 512 512">
    <path d="M294.75 188.19h-45.92V342h47.47c67.62 0 83.12-51.34 83.12-76.91 0-41.64-26.54-76.9-84.67-76.9zM256 8C119 8 8 119 8 256s111 248 248 248 248-111 248-248S393 8 256 8zm-80.79 360.76h-29.84v-207.5h29.84zm-14.92-231.14a19.57 19.57 0 1 1 19.57-19.57 19.64 19.64 0 0 1-19.57 19.57zM300 369h-81V161.26h80.6c76.73 0 110.44 54.83 110.44 103.85C410 318.39 368.38 369 300 369z"></path>
  </symbol>
  <symbol id="arxiv" viewBox="0 0 17.732 24.269">
    <g id="tiny">
      <path d="M573.549,280.916l2.266,2.738,6.674-7.84c.353-.47.52-.717.353-1.117a1.218,1.218,0,0,0-1.061-.748h0a.953.953,0,0,0-.712.262Z" transform="translate(-566.984 -271.548)"/>
      <path d="M579.525,282.225l-10.606-10.174a1.413,1.413,0,0,0-.834-.5,1.09,1.09,0,0,0-1.027.66c-.167.4-.047.681.319,1.206l8.44,10.242h0l-6.282,7.716a1.336,1.336,0,0,0-.323,1.3,1.114,1.114,0,0,0,1.04.69A.992.992,0,0,0,571,293l8.519-7.92A1.924,1.924,0,0,0,579.525,282.225Z" transform="translate(-566.984 -271.548)"/>
      <path d="M584.32,293.912l-8.525-10.275,0,0L573.53,280.9l-1.389,1.254a2.063,2.063,0,0,0,0,2.965l10.812,10.419a.925.925,0,0,0,.742.282,1.039,1.039,0,0,0,.953-.667A1.261,1.261,0,0,0,584.32,293.912Z" transform="translate(-566.984 -271.548)"/>
    </g>
  </symbol>
  <symbol id="wos" viewBox="0 0 1420 1563">
    <g id="tiny">
      <path d="m1224.2 781.4c79.4 95.7 145.3 203 195 318.8-214.2 223.1-490.1 386.3-800.4 462.4-31.4-41.8-60.5-85.5-86.8-131.1-36.7-63.5-67.3-129.3-92.5-196.5 313.7-53 589.7-218.5 784.7-453.6z"/>
      <path d="m1419.2 462.6c-49.7 115.9-115.6 223.1-195 318.8-195-235.1-471.1-400.6-784.9-453.6 43.8-118.4 104-228.5 178.6-327.8 310.6 76 586.9 239.4 801.3 462.6z"/>
      <path d="m222.2 1253.1c-53 0-105.1-3.2-156.4-9.4-89.4-306.8-86.1-627.5 0.2-924.6 51.2-6.2 103.3-9.4 156.2-9.4 73.9 0 146.4 6.2 217.1 18.1-14.1 38.1-26.7 77-37.3 116.7-71 264.8-56.9 538.8 37.5 790.5-70.7 11.9-143.3 18.1-217.3 18.1z"/>
    </g>
  </symbol>
  <symbol id="scopus" viewBox="0 0 24 24">
    <path d="M24 19.059l-.14-1.777c-1.426.772-2.945 1.076-4.465 1.076-3.319 0-5.96-2.782-5.96-6.475 0-3.903 2.595-6.31 5.633-6.31 1.917 0 3.39.303 4.792 1.075L24 4.895c-1.286-.608-2.337-.889-4.698-.889-4.534 0-7.97 3.53-7.97 8.017 0 5.12 4.09 7.924 7.9 7.924 1.916 0 3.506-.257 4.768-.888zm-14.954-3.46c0-2.22-1.964-3.225-3.857-4.347C3.716 10.364 2.15 9.756 2.15 8.12c0-1.215.889-2.548 2.642-2.548 1.519 0 2.57.234 3.903 1.029l.117-1.847c-1.239-.514-2.127-.748-4.137-.748C1.8 4.006.047 5.876.047 8.26c0 2.384 2.103 3.413 4.02 4.581 1.426.865 2.922 1.45 2.922 2.992 0 1.496-1.333 2.571-2.922 2.571-1.566 0-2.594-.35-3.786-1.075L0 19.176c1.215.56 2.454.818 4.16.818 2.385 0 4.885-1.473 4.885-4.395z"/>
  </symbol>
  <symbol id="magnifying-glass" viewBox="0 0 512 512">
    <path d="M416 208c0 45.9-14.9 88.3-40 122.7L502.6 457.4c12.5 12.5 12.5 32.8 0 45.3s-32.8 12.5-45.3 0L330.7 376c-34.4 25.2-76.8 40-122.7 40C93.1 416 0 322.9 0 208S93.1 0 208 0S416 93.1 416 208zM208 352c79.5 0 144-64.5 144-144s-64.5-144-144-144S64 128.5 64 208s64.5 144 144 144z"></path>
  </symbol>
  <symbol id="math" viewBox="0 0 576 512"> <!-- square-root-variable -->
    <path d="M289 24.2C292.5 10 305.3 0 320 0H544c17.7 0 32 14.3 32 32s-14.3 32-32 32H345L239 487.8c-3.2 13-14.2 22.6-27.6 24s-26.1-5.5-32.1-17.5L76.2 288H32c-17.7 0-32-14.3-32-32s14.3-32 32-32H96c12.1 0 23.2 6.8 28.6 17.7l73.3 146.6L289 24.2zM393.4 233.4c12.5-12.5 32.8-12.5 45.3 0L480 274.7l41.4-41.4c12.5-12.5 32.8-12.5 45.3 0s12.5 32.8 0 45.3L525.3 320l41.4 41.4c12.5 12.5 12.5 32.8 0 45.3s-32.8 12.5-45.3 0L480 365.3l-41.4 41.4c-12.5 12.5-32.8 12.5-45.3 0s-12.5-32.8 0-45.3L434.7 320l-41.4-41.4c-12.5-12.5-12.5-32.8 0-45.3z"></path>
  </symbol>
  <symbol id="medicine" viewBox="0 0 576 512"> <!-- stethoscope -->
    <path d="M142.4 21.9c5.6 16.8-3.5 34.9-20.2 40.5L96 71.1V192c0 53 43 96 96 96s96-43 96-96V71.1l-26.1-8.7c-16.8-5.6-25.8-23.7-20.2-40.5s23.7-25.8 40.5-20.2l26.1 8.7C334.4 19.1 352 43.5 352 71.1V192c0 77.2-54.6 141.6-127.3 156.7C231 404.6 278.4 448 336 448c61.9 0 112-50.1 112-112V265.3c-28.3-12.3-48-40.5-48-73.3c0-44.2 35.8-80 80-80s80 35.8 80 80c0 32.8-19.7 61-48 73.3V336c0 97.2-78.8 176-176 176c-92.9 0-168.9-71.9-175.5-163.1C87.2 334.2 32 269.6 32 192V71.1c0-27.5 17.6-52 43.8-60.7l26.1-8.7c16.8-5.6 34.9 3.5 40.5 20.2zM480 224c17.7 0 32-14.3 32-32s-14.3-32-32-32s-32 14.3-32 32s14.3 32 32 32z"></path>
  </symbol>
  <symbol id="psychology" viewBox="0 0 512 512"> <!-- brain -->
    <path d="M184 0c30.9 0 56 25.1 56 56V456c0 30.9-25.1 56-56 56c-28.9 0-52.7-21.9-55.7-50.1c-5.2 1.4-10.7 2.1-16.3 2.1c-35.3 0-64-28.7-64-64c0-7.4 1.3-14.6 3.6-21.2C21.4 367.4 0 338.2 0 304c0-31.9 18.7-59.5 45.8-72.3C37.1 220.8 32 207 32 192c0-30.7 21.6-56.3 50.4-62.6C80.8 123.9 80 118 80 112c0-29.9 20.6-55.1 48.3-62.1C131.3 21.9 155.1 0 184 0zM328 0c28.9 0 52.6 21.9 55.7 49.9c27.8 7 48.3 32.1 48.3 62.1c0 6-.8 11.9-2.4 17.4c28.8 6.2 50.4 31.9 50.4 62.6c0 15-5.1 28.8-13.8 39.7C493.3 244.5 512 272.1 512 304c0 34.2-21.4 63.4-51.6 74.8c2.3 6.6 3.6 13.8 3.6 21.2c0 35.3-28.7 64-64 64c-5.6 0-11.1-.7-16.3-2.1c-3 28.2-26.8 50.1-55.7 50.1c-30.9 0-56-25.1-56-56V56c0-30.9 25.1-56 56-56z"></path>
  </symbol>
  <symbol id="philosophy" viewBox="0 0 640 512"> <!-- graduation-cap -->
    <path d="M320 32c-8.1 0-16.1 1.4-23.7 4.1L15.8 137.4C6.3 140.9 0 149.9 0 160s6.3 19.1 15.8 22.6l57.9 20.9C57.3 229.3 48 259.8 48 291.9v28.1c0 28.4-10.8 57.7-22.3 80.8c-6.5 13-13.9 25.8-22.5 37.6C0 442.7-.9 448.3 .9 453.4s6 8.9 11.2 10.2l64 16c4.2 1.1 8.7 .3 12.4-2s6.3-6.1 7.1-10.4c8.6-42.8 4.3-81.2-2.1-108.7C90.3 344.3 86 329.8 80 316.5V291.9c0-30.2 10.2-58.7 27.9-81.5c12.9-15.5 29.6-28 49.2-35.7l157-61.7c8.2-3.2 17.5 .8 20.7 9s-.8 17.5-9 20.7l-157 61.7c-12.4 4.9-23.3 12.4-32.2 21.6l159.6 57.6c7.6 2.7 15.6 4.1 23.7 4.1s16.1-1.4 23.7-4.1L624.2 182.6c9.5-3.4 15.8-12.5 15.8-22.6s-6.3-19.1-15.8-22.6L343.7 36.1C336.1 33.4 328.1 32 320 32zM128 408c0 35.3 86 72 192 72s192-36.7 192-72L496.7 262.6 354.5 314c-11.1 4-22.8 6-34.5 6s-23.5-2-34.5-6L143.3 262.6 128 408z"></path>
  </symbol>
  <symbol id="biography" viewBox="0 0 512 512"> <!-- circle-user -->
    <path d="M256 112c-48.6 0-88 39.4-88 88C168 248.6 207.4 288 256 288s88-39.4 88-88C344 151.4 304.6 112 256 112zM256 240c-22.06 0-40-17.95-40-40C216 177.9 233.9 160 256 160s40 17.94 40 40C296 222.1 278.1 240 256 240zM256 0C114.6 0 0 114.6 0 256s114.6 256 256 256s256-114.6 256-256S397.4 0 256 0zM256 464c-46.73 0-89.76-15.68-124.5-41.79C148.8 389 182.4 368 220.2 368h71.69c37.75 0 71.31 21.01 88.68 54.21C345.8 448.3 302.7 464 256 464zM416.2 388.5C389.2 346.3 343.2 320 291.8 320H220.2c-51.36 0-97.35 26.25-124.4 68.48C65.96 352.5 48 306.3 48 256c0-114.7 93.31-208 208-208s208 93.31 208 208C464 306.3 446 352.5 416.2 388.5z"></path>
  </symbol>
  <symbol id="fiction" viewBox="0 0 512 512"> <!-- feather -->
    <path d="M278.5 215.6L23 471c-9.4 9.4-9.4 24.6 0 33.9s24.6 9.4 33.9 0l57-57h68c49.7 0 97.9-14.4 139-41c11.1-7.2 5.5-23-7.8-23c-5.1 0-9.2-4.1-9.2-9.2c0-4.1 2.7-7.6 6.5-8.8l81-24.3c2.5-.8 4.8-2.1 6.7-4l22.4-22.4c10.1-10.1 2.9-27.3-11.3-27.3l-32.2 0c-5.1 0-9.2-4.1-9.2-9.2c0-4.1 2.7-7.6 6.5-8.8l112-33.6c4-1.2 7.4-3.9 9.3-7.7C506.4 207.6 512 184.1 512 160c0-41-16.3-80.3-45.3-109.3l-5.5-5.5C432.3 16.3 393 0 352 0s-80.3 16.3-109.3 45.3L139 149C91 197 64 262.1 64 330v55.3L253.6 195.8c6.2-6.2 16.4-6.2 22.6 0c5.4 5.4 6.1 13.6 2.2 19.8z"></path>
  </symbol>
  <symbol id="statistics" viewBox="0 0 512 512">
    <path d="M64 64c0-17.7-14.3-32-32-32S0 46.3 0 64V400c0 44.2 35.8 80 80 80H480c17.7 0 32-14.3 32-32s-14.3-32-32-32H80c-8.8 0-16-7.2-16-16V64zm406.6 86.6c12.5-12.5 12.5-32.8 0-45.3s-32.8-12.5-45.3 0L320 210.7l-57.4-57.4c-12.5-12.5-32.8-12.5-45.3 0l-112 112c-12.5 12.5-12.5 32.8 0 45.3s32.8 12.5 45.3 0L240 221.3l57.4 57.4c12.5 12.5 32.8 12.5 45.3 0l128-128z"></path>
  </symbol>
  <symbol id="analysis" viewBox="0 0 448 512">
    <path d="M288 0H160 128C110.3 0 96 14.3 96 32s14.3 32 32 32V196.8c0 11.8-3.3 23.5-9.5 33.5L10.3 406.2C3.6 417.2 0 429.7 0 442.6C0 480.9 31.1 512 69.4 512H378.6c38.3 0 69.4-31.1 69.4-69.4c0-12.8-3.6-25.4-10.3-36.4L329.5 230.4c-6.2-10.1-9.5-21.7-9.5-33.5V64c17.7 0 32-14.3 32-32s-14.3-32-32-32H288zM192 196.8V64h64V196.8c0 23.7 6.6 46.9 19 67.1L309.5 320h-171L173 263.9c12.4-20.2 19-43.4 19-67.1z"></path>
  </symbol>
  <symbol id="my-own-work" viewBox="0 0 576 512"> <!-- star -->
    <path d="M287.9 0C297.1 0 305.5 5.25 309.5 13.52L378.1 154.8L531.4 177.5C540.4 178.8 547.8 185.1 550.7 193.7C553.5 202.4 551.2 211.9 544.8 218.2L433.6 328.4L459.9 483.9C461.4 492.9 457.7 502.1 450.2 507.4C442.8 512.7 432.1 513.4 424.9 509.1L287.9 435.9L150.1 509.1C142.9 513.4 133.1 512.7 125.6 507.4C118.2 502.1 114.5 492.9 115.1 483.9L142.2 328.4L31.11 218.2C24.65 211.9 22.36 202.4 25.2 193.7C28.03 185.1 35.5 178.8 44.49 177.5L197.7 154.8L266.3 13.52C270.4 5.249 278.7 0 287.9 0L287.9 0zM287.9 78.95L235.4 187.2C231.9 194.3 225.1 199.3 217.3 200.5L98.98 217.9L184.9 303C190.4 308.5 192.9 316.4 191.6 324.1L171.4 443.7L276.6 387.5C283.7 383.7 292.2 383.7 299.2 387.5L404.4 443.7L384.2 324.1C382.9 316.4 385.5 308.5 391 303L476.9 217.9L358.6 200.5C350.7 199.3 343.9 194.3 340.5 187.2L287.9 78.95z"></path>
  </symbol>
  <symbol id="goodreads" viewBox="0 0 384 512"> <!-- goodreads-g -->
    <path d="M42.6 403.3h2.8c12.7 0 25.5 0 38.2.1 1.6 0 3.1-.4 3.6 2.1 7.1 34.9 30 54.6 62.9 63.9 26.9 7.6 54.1 7.8 81.3 1.8 33.8-7.4 56-28.3 68-60.4 8-21.5 10.7-43.8 11-66.5.1-5.8.3-47-.2-52.8l-.9-.3c-.8 1.5-1.7 2.9-2.5 4.4-22.1 43.1-61.3 67.4-105.4 69.1-103 4-169.4-57-172-176.2-.5-23.7 1.8-46.9 8.3-69.7C58.3 47.7 112.3.6 191.6 0c61.3-.4 101.5 38.7 116.2 70.3.5 1.1 1.3 2.3 2.4 1.9V10.6h44.3c0 280.3.1 332.2.1 332.2-.1 78.5-26.7 143.7-103 162.2-69.5 16.9-159 4.8-196-57.2-8-13.5-11.8-28.3-13-44.5zM188.9 36.5c-52.5-.5-108.5 40.7-115 133.8-4.1 59 14.8 122.2 71.5 148.6 27.6 12.9 74.3 15 108.3-8.7 47.6-33.2 62.7-97 54.8-154-9.7-71.1-47.8-120-119.6-119.7z"></path>
  </symbol>

  <symbol id="quote" viewBox="0 0 448 512"> <!-- quote-left; modified -->
      <path d="M0 216C0 149.7 53.7 96 120 96h8c17.7 0 32 14.3 32 32s-14.3 32-32 32h-8c-30.9 0-56 25.1-56 56v8h64c35.3 0 64 28.7 64 64v64c0 35.3-28.7 64-64 64H64c-35.3 0-64-28.7-64-64V320 288 216zm256 0c0-66.3 53.7-120 120-120h8c17.7 0 32 14.3 32 32s-14.3 32-32 32h-8c-30.9 0-56 25.1-56 56v8h64c35.3 0 64 28.7 64 64v64c0 35.3-28.7 64-64 64H320c-35.3 0-64-28.7-64-64V320 288 216z" fill="none" stroke="currentColor" stroke-width="40"></path>
  </symbol>
  <symbol id="note" viewBox="0 0 448 512"> <!-- note-sticky -->
    <path d="M64 80c-8.8 0-16 7.2-16 16V416c0 8.8 7.2 16 16 16H288V352c0-17.7 14.3-32 32-32h80V96c0-8.8-7.2-16-16-16H64zM288 480H64c-35.3 0-64-28.7-64-64V96C0 60.7 28.7 32 64 32H384c35.3 0 64 28.7 64 64V320v5.5c0 17-6.7 33.3-18.7 45.3l-90.5 90.5c-12 12-28.3 18.7-45.3 18.7H288z"></path>
  </symbol>
  <symbol id="paper" viewBox="0 0 384 512"> <!-- file-lines -->
    <path d="M365.3 93.38l-74.63-74.64C278.6 6.742 262.3 0 245.4 0L64-.0001c-35.35 0-64 28.65-64 64l.0065 384c0 35.34 28.65 64 64 64H320c35.2 0 64-28.8 64-64V138.6C384 121.7 377.3 105.4 365.3 93.38zM336 448c0 8.836-7.164 16-16 16H64.02c-8.838 0-16-7.164-16-16L48 64.13c0-8.836 7.164-16 16-16h160L224 128c0 17.67 14.33 32 32 32h79.1V448zM96 280C96 293.3 106.8 304 120 304h144C277.3 304 288 293.3 288 280S277.3 256 264 256h-144C106.8 256 96 266.8 96 280zM264 352h-144C106.8 352 96 362.8 96 376s10.75 24 24 24h144c13.25 0 24-10.75 24-24S277.3 352 264 352z"></path>
  </symbol>
  <symbol id="book" viewBox="0 0 448 512">
    <path d="M96 0C43 0 0 43 0 96V416c0 53 43 96 96 96H384h32c17.7 0 32-14.3 32-32s-14.3-32-32-32V384c17.7 0 32-14.3 32-32V32c0-17.7-14.3-32-32-32H384 96zm0 384H352v64H96c-17.7 0-32-14.3-32-32s14.3-32 32-32zm32-240c0-8.8 7.2-16 16-16H336c8.8 0 16 7.2 16 16s-7.2 16-16 16H144c-8.8 0-16-7.2-16-16zm16 48H336c8.8 0 16 7.2 16 16s-7.2 16-16 16H144c-8.8 0-16-7.2-16-16s7.2-16 16-16z"></path>
  </symbol>
  <symbol id="web" viewBox="0 0 640 512"> <!-- link -->
    <path d="M579.8 267.7c56.5-56.5 56.5-148 0-204.5c-50-50-128.8-56.5-186.3-15.4l-1.6 1.1c-14.4 10.3-17.7 30.3-7.4 44.6s30.3 17.7 44.6 7.4l1.6-1.1c32.1-22.9 76-19.3 103.8 8.6c31.5 31.5 31.5 82.5 0 114L422.3 334.8c-31.5 31.5-82.5 31.5-114 0c-27.9-27.9-31.5-71.8-8.6-103.8l1.1-1.6c10.3-14.4 6.9-34.4-7.4-44.6s-34.4-6.9-44.6 7.4l-1.1 1.6C206.5 251.2 213 330 263 380c56.5 56.5 148 56.5 204.5 0L579.8 267.7zM60.2 244.3c-56.5 56.5-56.5 148 0 204.5c50 50 128.8 56.5 186.3 15.4l1.6-1.1c14.4-10.3 17.7-30.3 7.4-44.6s-30.3-17.7-44.6-7.4l-1.6 1.1c-32.1 22.9-76 19.3-103.8-8.6C74 372 74 321 105.5 289.5L217.7 177.2c31.5-31.5 82.5-31.5 114 0c27.9 27.9 31.5 71.8 8.6 103.9l-1.1 1.6c-10.3 14.4-6.9 34.4 7.4 44.6s34.4 6.9 44.6-7.4l1.1-1.6C433.5 260.8 427 182 377 132c-56.5-56.5-148-56.5-204.5 0L60.2 244.3z"></path>
  </symbol>
  <symbol id="talk" viewBox="0 0 576 512"> <!-- video -->
    <path d="M0 128C0 92.7 28.7 64 64 64H320c35.3 0 64 28.7 64 64V384c0 35.3-28.7 64-64 64H64c-35.3 0-64-28.7-64-64V128zM559.1 99.8c10.4 5.6 16.9 16.4 16.9 28.2V384c0 11.8-6.5 22.6-16.9 28.2s-23 5-32.9-1.6l-96-64L416 337.1V320 192 174.9l14.2-9.5 96-64c9.8-6.5 22.4-7.2 32.9-1.6z"></path>
  </symbol>
  <symbol id="media" viewBox="0 0 384 512"> <!-- microphone-lines -->
    <path d="M96 96V256c0 53 43 96 96 96s96-43 96-96H208c-8.8 0-16-7.2-16-16s7.2-16 16-16h80V192H208c-8.8 0-16-7.2-16-16s7.2-16 16-16h80V128H208c-8.8 0-16-7.2-16-16s7.2-16 16-16h80c0-53-43-96-96-96S96 43 96 96zM320 240v16c0 70.7-57.3 128-128 128s-128-57.3-128-128V216c0-13.3-10.7-24-24-24s-24 10.7-24 24v40c0 89.1 66.2 162.7 152 174.4V464H120c-13.3 0-24 10.7-24 24s10.7 24 24 24h72 72c13.3 0 24-10.7 24-24s-10.7-24-24-24H216V430.4c85.8-11.7 152-85.3 152-174.4V216c0-13.3-10.7-24-24-24s-24 10.7-24 24v24z"></path>
  </symbol>



  <symbol id="reference" viewBox="0 0 512 512"> <!-- hand-point-right -->
    <path d="M320 408c0-6.428-.8457-12.66-2.434-18.6C338.2 376.7 352 353.9 352 328c0-6.428-.8457-12.66-2.434-18.6C370.2 296.7 384 273.9 384 248c0-2.705-.1484-5.373-.4414-8H440C479.7 240 512 207.7 512 168S479.7 96 440 96H243.7C227.5 76.51 203.2 64 176 64H126.1C94.02 64 64.47 81.1 49 108.6L17.65 164.5C6.104 185.1 0 208.4 0 231.8v107.9C0 417.1 64.6 480 144 480h104C287.7 480 320 447.7 320 408zM280 304c13.23 0 24 10.78 24 24S293.2 352 280 352H232.1C218.9 352 208 341.2 208 328S218.8 304 232 304H280zM312 224c13.23 0 24 10.78 24 24S325.2 272 312 272h-48c-3.029 0-5.875-.7012-8.545-1.73C260.7 259.9 264 248.4 264 236V224H312zM440 144c13.23 0 24 10.78 24 24S453.2 192 440 192h-176V152c0-2.686-.5566-5.217-.793-7.84C263.5 144.2 263.7 144 264 144H440zM48 339.7V231.8c0-15.25 3.984-30.41 11.52-43.88l31.34-55.78C97.84 119.7 111.4 112 126.1 112H176c22.06 0 40 17.94 40 40v84c0 15.44-12.56 28-28 28S160 251.4 160 236V184C160 170.8 149.3 160 136 160S112 170.8 112 184v52c0 33.23 21.58 61.25 51.36 71.54C161.3 314 160 320.9 160 328c0 5.041 1.166 9.836 2.178 14.66C137.4 354 120 378.1 120 408c0 7.684 1.557 14.94 3.836 21.87C80.56 420.9 48 383.9 48 339.7zM192 432c-13.23 0-24-10.78-24-24S178.8 384 192 384h56c13.23 0 24 10.78 24 24s-10.77 24-24 24H192z"></path>
  </symbol>
  <symbol id="backlink" viewBox="0 0 512 512"> <!-- hand-point-left -->
    <path d="M264 480h104c79.4 0 144-62.95 144-140.3V231.8c0-23.44-6.104-46.73-17.65-67.35L462.1 108.6C447.5 81.1 417.1 64 385.9 64H336c-27.23 0-51.53 12.51-67.69 32H72C32.3 96 0 128.3 0 168S32.3 240 72 240h56.44C128.1 242.6 128 245.3 128 248c0 25.95 13.79 48.73 34.43 61.4C160.8 315.3 160 321.6 160 328c0 25.95 13.79 48.73 34.43 61.4C192.8 395.3 192 401.6 192 408C192 447.7 224.3 480 264 480zM280 304c13.23 0 24 10.78 24 24S293.1 352 279.9 352H232c-13.23 0-24-10.78-24-24S218.8 304 232 304H280zM248 224v12c0 12.39 3.264 23.93 8.545 34.27C253.9 271.3 251 272 248 272h-48C186.8 272 176 261.2 176 248S186.8 224 200 224H248zM248 144c.2813 0 .5137 .1504 .793 .1602C248.6 146.8 248 149.3 248 152V192h-176C58.77 192 48 181.2 48 168S58.77 144 72 144H248zM388.2 429.9C390.4 422.9 392 415.7 392 408c0-29.04-17.37-53.96-42.18-65.34C350.8 337.8 352 333 352 328c0-7.139-1.273-13.96-3.355-20.46C378.4 297.2 400 269.2 400 236V184C400 170.8 389.3 160 376 160S352 170.8 352 184v52c0 15.44-12.56 28-28 28S296 251.4 296 236V152c0-22.06 17.94-40 40-40h49.88c14.77 0 28.28 7.719 35.27 20.16l31.34 55.78C460 201.4 464 216.6 464 231.8v107.9C464 383.9 431.4 420.9 388.2 429.9zM264 432c-13.23 0-24-10.78-24-24S250.8 384 264 384H320c13.23 0 24 10.78 24 24S333.2 432 320 432H264z"></path>
  </symbol>

  <symbol id="fail" viewBox="0 0 512 512"> <!-- poo -->
    <path d="M268.9 .9c-5.5-.7-11 1.4-14.5 5.7s-4.6 10.1-2.8 15.4c2.8 8.2 4.3 16.9 4.3 26.1c0 44.1-35.7 79.9-79.8 80H160c-35.3 0-64 28.7-64 64c0 19.1 8.4 36.3 21.7 48H104c-39.8 0-72 32.2-72 72c0 23.2 11 43.8 28 57c-34.1 5.7-60 35.3-60 71c0 39.8 32.2 72 72 72H440c39.8 0 72-32.2 72-72c0-35.7-25.9-65.3-60-71c17-13.2 28-33.8 28-57c0-39.8-32.2-72-72-72H394.3c13.3-11.7 21.7-28.9 21.7-48c0-35.3-28.7-64-64-64h-5.5c3.5-10 5.5-20.8 5.5-32c0-48.6-36.2-88.8-83.1-95.1zM192 320c-17.7 0-32-14.3-32-32s14.3-32 32-32s32 14.3 32 32s-14.3 32-32 32zm160-32c0 17.7-14.3 32-32 32s-32-14.3-32-32s14.3-32 32-32s32 14.3 32 32zm0 108.3c0 2.4-.7 4.8-2.2 6.7c-8.2 10.5-39.5 45-93.8 45s-85.6-34.6-93.8-45c-1.5-1.9-2.2-4.3-2.2-6.7c0-6.8 5.5-12.3 12.3-12.3H339.7c6.8 0 12.3 5.5 12.3 12.3z"></path>
  </symbol>
  <symbol id="error" viewBox="0 0 320 512"> <!-- xmark -->
    <path d="M310.6 150.6c12.5-12.5 12.5-32.8 0-45.3s-32.8-12.5-45.3 0L160 210.7 54.6 105.4c-12.5-12.5-32.8-12.5-45.3 0s-12.5 32.8 0 45.3L114.7 256 9.4 361.4c-12.5 12.5-12.5 32.8 0 45.3s32.8 12.5 45.3 0L160 301.3 265.4 406.6c12.5 12.5 32.8 12.5 45.3 0s12.5-32.8 0-45.3L205.3 256 310.6 150.6z"></path>
  </symbol>
  <symbol id="warning" viewBox="0 0 512 512"> <!-- triangle-exclamation -->
    <path d="M256 32c14.2 0 27.3 7.5 34.5 19.8l216 368c7.3 12.4 7.3 27.7 .2 40.1S486.3 480 472 480H40c-14.3 0-27.6-7.7-34.7-20.1s-7-27.8 .2-40.1l216-368C228.7 39.5 241.8 32 256 32zm0 128c-13.3 0-24 10.7-24 24V296c0 13.3 10.7 24 24 24s24-10.7 24-24V184c0-13.3-10.7-24-24-24zm32 224c0-17.7-14.3-32-32-32s-32 14.3-32 32s14.3 32 32 32s32-14.3 32-32z"></path>
  </symbol>
  <symbol id="decent" viewBox="0 0 512 512"> <!-- thumbs-up -->
    <path d="M96 191.1H32c-17.67 0-32 14.33-32 31.1v223.1c0 17.67 14.33 31.1 32 31.1h64c17.67 0 32-14.33 32-31.1V223.1C128 206.3 113.7 191.1 96 191.1zM512 227c0-36.89-30.05-66.92-66.97-66.92h-99.86C354.7 135.1 360 113.5 360 100.8c0-33.8-26.2-68.78-70.06-68.78c-46.61 0-59.36 32.44-69.61 58.5c-31.66 80.5-60.33 66.39-60.33 93.47c0 12.84 10.36 23.99 24.02 23.99c5.256 0 10.55-1.721 14.97-5.26c76.76-61.37 57.97-122.7 90.95-122.7c16.08 0 22.06 12.75 22.06 20.79c0 7.404-7.594 39.55-25.55 71.59c-2.046 3.646-3.066 7.686-3.066 11.72c0 13.92 11.43 23.1 24 23.1h137.6C455.5 208.1 464 216.6 464 227c0 9.809-7.766 18.03-17.67 18.71c-12.66 .8593-22.36 11.4-22.36 23.94c0 15.47 11.39 15.95 11.39 28.91c0 25.37-35.03 12.34-35.03 42.15c0 11.22 6.392 13.03 6.392 22.25c0 22.66-29.77 13.76-29.77 40.64c0 4.515 1.11 5.961 1.11 9.456c0 10.45-8.516 18.95-18.97 18.95h-52.53c-25.62 0-51.02-8.466-71.5-23.81l-36.66-27.51c-4.315-3.245-9.37-4.811-14.38-4.811c-13.85 0-24.03 11.38-24.03 24.04c0 7.287 3.312 14.42 9.596 19.13l36.67 27.52C235 468.1 270.6 480 306.6 480h52.53c35.33 0 64.36-27.49 66.8-62.2c17.77-12.23 28.83-32.51 28.83-54.83c0-3.046-.2187-6.107-.6406-9.122c17.84-12.15 29.28-32.58 29.28-55.28c0-5.311-.6406-10.54-1.875-15.64C499.9 270.1 512 250.2 512 227z"></path>
  </symbol>
  <symbol id="great" viewBox="0 0 512 512"> <!-- heart -->
    <path d="M244 84L255.1 96L267.1 84.02C300.6 51.37 347 36.51 392.6 44.1C461.5 55.58 512 115.2 512 185.1V190.9C512 232.4 494.8 272.1 464.4 300.4L283.7 469.1C276.2 476.1 266.3 480 256 480C245.7 480 235.8 476.1 228.3 469.1L47.59 300.4C17.23 272.1 0 232.4 0 190.9V185.1C0 115.2 50.52 55.58 119.4 44.1C164.1 36.51 211.4 51.37 244 84C243.1 84 244 84.01 244 84L244 84zM255.1 163.9L210.1 117.1C188.4 96.28 157.6 86.4 127.3 91.44C81.55 99.07 48 138.7 48 185.1V190.9C48 219.1 59.71 246.1 80.34 265.3L256 429.3L431.7 265.3C452.3 246.1 464 219.1 464 190.9V185.1C464 138.7 430.4 99.07 384.7 91.44C354.4 86.4 323.6 96.28 301.9 117.1L255.1 163.9z"></path>
  </symbol>

  <symbol id="audit" viewBox="0 0 448 512"> <!-- user-secret -->
    <path d="M224 16c-6.7 0-10.8-2.8-15.5-6.1C201.9 5.4 194 0 176 0c-30.5 0-52 43.7-66 89.4C62.7 98.1 32 112.2 32 128c0 14.3 25 27.1 64.6 35.9c-.4 4-.6 8-.6 12.1c0 17 3.3 33.2 9.3 48H45.4C38 224 32 230 32 237.4c0 1.7 .3 3.4 1 5l38.8 96.9C28.2 371.8 0 423.8 0 482.3C0 498.7 13.3 512 29.7 512H418.3c16.4 0 29.7-13.3 29.7-29.7c0-58.5-28.2-110.4-71.7-143L415 242.4c.6-1.6 1-3.3 1-5c0-7.4-6-13.4-13.4-13.4H342.7c6-14.8 9.3-31 9.3-48c0-4.1-.2-8.1-.6-12.1C391 155.1 416 142.3 416 128c0-15.8-30.7-29.9-78-38.6C324 43.7 302.5 0 272 0c-18 0-25.9 5.4-32.5 9.9c-4.7 3.3-8.8 6.1-15.5 6.1zm56 208H267.6c-16.5 0-31.1-10.6-36.3-26.2c-2.3-7-12.2-7-14.5 0c-5.2 15.6-19.9 26.2-36.3 26.2H168c-22.1 0-40-17.9-40-40V169.6c28.2 4.1 61 6.4 96 6.4s67.8-2.3 96-6.4V184c0 22.1-17.9 40-40 40zm-88 96l16 32L176 480 128 288l64 32zm128-32L272 480 240 352l16-32 64-32z"></path>
  </symbol>
  <symbol id="review" viewBox="0 0 576 512"> <!-- person-harassing -->
    <path d="M192 96c26.5 0 48-21.5 48-48s-21.5-48-48-48s-48 21.5-48 48s21.5 48 48 48zM59.4 304.5L88 256.9V480c0 17.7 14.3 32 32 32s32-14.3 32-32V352h16V480c0 17.7 14.3 32 32 32s32-14.3 32-32V235.3l47.4 57.1c11.3 13.6 31.5 15.5 45.1 4.2s15.5-31.5 4.2-45.1l-73.7-88.9c-18.2-22-45.3-34.7-73.9-34.7H145.1c-33.7 0-64.9 17.7-82.3 46.6l-58.3 97c-9.1 15.1-4.2 34.8 10.9 43.9s34.8 4.2 43.9-10.9zM480 240c0-26.5-21.5-48-48-48s-48 21.5-48 48s21.5 48 48 48s48-21.5 48-48zM464 344v58.7l-41.4-41.4c-7.3-7.3-17.6-10.6-27.8-9s-18.9 8.1-23.5 17.3l-48 96c-7.9 15.8-1.5 35 14.3 42.9s35 1.5 42.9-14.3L408.8 438l54.7 54.7c12.4 12.4 29.1 19.3 46.6 19.3c36.4 0 65.9-29.5 65.9-65.9V344c0-30.9-25.1-56-56-56s-56 25.1-56 56zM288 48c0 8.8 7.2 16 16 16h56c8.8 0 16-7.2 16-16s-7.2-16-16-16H304c-8.8 0-16 7.2-16 16zm-.8 49.7c-7.9-4-17.5-.7-21.5 7.2s-.7 17.5 7.2 21.5l48 24c7.9 4 17.5 .7 21.5-7.2s.7-17.5-7.2-21.5l-48-24z"></path>
  </symbol>


  <symbol id="rating-6" viewBox="0 0 512 512"> <!-- face-grin-stars -->
    <path d="M199.8 167.3L237.9 172.3C240.1 172.7 243.5 174.8 244.5 177.8C245.4 180.7 244.6 183.9 242.4 186L214.5 212.5L221.5 250.3C222 253.4 220.8 256.4 218.3 258.2C215.8 260.1 212.5 260.3 209.8 258.8L175.1 240.5L142.2 258.8C139.5 260.3 136.2 260.1 133.7 258.2C131.2 256.4 129.1 253.4 130.5 250.3L137.5 212.5L109.6 186C107.4 183.9 106.6 180.7 107.5 177.8C108.5 174.8 111 172.7 114.1 172.3L152.2 167.3L168.8 132.6C170.1 129.8 172.9 128 175.1 128C179.1 128 181.9 129.8 183.2 132.6L199.8 167.3zM359.8 167.3L397.9 172.3C400.1 172.7 403.5 174.8 404.5 177.8C405.4 180.7 404.6 183.9 402.4 186L374.5 212.5L381.5 250.3C382 253.4 380.8 256.4 378.3 258.2C375.8 260.1 372.5 260.3 369.8 258.8L336 240.5L302.2 258.8C299.5 260.3 296.2 260.1 293.7 258.2C291.2 256.4 289.1 253.4 290.5 250.3L297.5 212.5L269.6 186C267.4 183.9 266.6 180.7 267.5 177.8C268.5 174.8 271 172.7 274.1 172.3L312.2 167.3L328.8 132.6C330.1 129.8 332.9 128 336 128C339.1 128 341.9 129.8 343.2 132.6L359.8 167.3zM349.5 308.4C368.2 303.1 385.4 320.4 374.1 336.5C350.4 374.6 306.3 399.1 255.9 399.1C205.6 399.1 161.5 374.6 136.9 336.5C126.5 320.4 143.7 303.1 162.3 308.4C191.3 315.1 222.8 318.8 255.9 318.8C289 318.8 320.6 315.1 349.5 308.4zM0 256C0 114.6 114.6 0 256 0C397.4 0 512 114.6 512 256C512 397.4 397.4 512 256 512C114.6 512 0 397.4 0 256zM256 464C370.9 464 464 370.9 464 256C464 141.1 370.9 48 256 48C141.1 48 48 141.1 48 256C48 370.9 141.1 464 256 464z"></path>
  </symbol>
  <symbol id="rating-5" viewBox="0 0 512 512"> <!-- face-grin -->
    <path d="M349.5 308.4C368.2 303.1 385.4 320.4 374.1 336.5C350.4 374.6 306.3 399.1 255.9 399.1C205.6 399.1 161.5 374.6 136.9 336.5C126.5 320.4 143.7 303.1 162.3 308.4C191.3 315.1 222.8 318.8 255.9 318.8C289 318.8 320.6 315.1 349.5 308.4zM208.4 208C208.4 225.7 194 240 176.4 240C158.7 240 144.4 225.7 144.4 208C144.4 190.3 158.7 176 176.4 176C194 176 208.4 190.3 208.4 208zM304.4 208C304.4 190.3 318.7 176 336.4 176C354 176 368.4 190.3 368.4 208C368.4 225.7 354 240 336.4 240C318.7 240 304.4 225.7 304.4 208zM512 256C512 397.4 397.4 512 256 512C114.6 512 0 397.4 0 256C0 114.6 114.6 0 256 0C397.4 0 512 114.6 512 256zM256 48C141.1 48 48 141.1 48 256C48 370.9 141.1 464 256 464C370.9 464 464 370.9 464 256C464 141.1 370.9 48 256 48z"></path>
  </symbol>
  <symbol id="rating-4" viewBox="0 0 512 512"> <!-- face-smile -->
    <path d="M256 352C293.2 352 319.2 334.5 334.4 318.1C343.3 308.4 358.5 307.7 368.3 316.7C378 325.7 378.6 340.9 369.6 350.6C347.7 374.5 309.7 400 256 400C202.3 400 164.3 374.5 142.4 350.6C133.4 340.9 133.1 325.7 143.7 316.7C153.5 307.7 168.7 308.4 177.6 318.1C192.8 334.5 218.8 352 256 352zM208.4 208C208.4 225.7 194 240 176.4 240C158.7 240 144.4 225.7 144.4 208C144.4 190.3 158.7 176 176.4 176C194 176 208.4 190.3 208.4 208zM304.4 208C304.4 190.3 318.7 176 336.4 176C354 176 368.4 190.3 368.4 208C368.4 225.7 354 240 336.4 240C318.7 240 304.4 225.7 304.4 208zM512 256C512 397.4 397.4 512 256 512C114.6 512 0 397.4 0 256C0 114.6 114.6 0 256 0C397.4 0 512 114.6 512 256zM256 48C141.1 48 48 141.1 48 256C48 370.9 141.1 464 256 464C370.9 464 464 370.9 464 256C464 141.1 370.9 48 256 48z"></path>
  </symbol>
  <symbol id="rating-3" viewBox="0 0 512 512"> <!-- face-meh -->
    <path d="M144.4 208C144.4 190.3 158.7 176 176.4 176C194 176 208.4 190.3 208.4 208C208.4 225.7 194 240 176.4 240C158.7 240 144.4 225.7 144.4 208zM368.4 208C368.4 225.7 354 240 336.4 240C318.7 240 304.4 225.7 304.4 208C304.4 190.3 318.7 176 336.4 176C354 176 368.4 190.3 368.4 208zM328 328C341.3 328 352 338.7 352 352C352 365.3 341.3 376 328 376H184C170.7 376 160 365.3 160 352C160 338.7 170.7 328 184 328H328zM512 256C512 397.4 397.4 512 256 512C114.6 512 0 397.4 0 256C0 114.6 114.6 0 256 0C397.4 0 512 114.6 512 256zM256 464C370.9 464 464 370.9 464 256C464 141.1 370.9 48 256 48C141.1 48 48 141.1 48 256C48 370.9 141.1 464 256 464z"></path>
  </symbol>
  <symbol id="rating-2" viewBox="0 0 512 512"> <!-- face-frown -->
    <path d="M143.9 398.6C131.4 394.1 124.9 380.3 129.4 367.9C146.9 319.4 198.9 288 256 288C313.1 288 365.1 319.4 382.6 367.9C387.1 380.3 380.6 394.1 368.1 398.6C355.7 403.1 341.9 396.6 337.4 384.1C328.2 358.5 297.2 336 256 336C214.8 336 183.8 358.5 174.6 384.1C170.1 396.6 156.3 403.1 143.9 398.6V398.6zM208.4 208C208.4 225.7 194 240 176.4 240C158.7 240 144.4 225.7 144.4 208C144.4 190.3 158.7 176 176.4 176C194 176 208.4 190.3 208.4 208zM304.4 208C304.4 190.3 318.7 176 336.4 176C354 176 368.4 190.3 368.4 208C368.4 225.7 354 240 336.4 240C318.7 240 304.4 225.7 304.4 208zM512 256C512 397.4 397.4 512 256 512C114.6 512 0 397.4 0 256C0 114.6 114.6 0 256 0C397.4 0 512 114.6 512 256zM256 48C141.1 48 48 141.1 48 256C48 370.9 141.1 464 256 464C370.9 464 464 370.9 464 256C464 141.1 370.9 48 256 48z"></path>
  </symbol>
  <symbol id="rating-1" viewBox="0 0 512 512"> <!-- face-angry -->
    <path d="M328.4 393.5C318.7 402.6 303.5 402.1 294.5 392.4C287.1 384.5 274.4 376 256 376C237.6 376 224.9 384.5 217.5 392.4C208.5 402.1 193.3 402.6 183.6 393.5C173.9 384.5 173.4 369.3 182.5 359.6C196.7 344.3 221.4 328 256 328C290.6 328 315.3 344.3 329.5 359.6C338.6 369.3 338.1 384.5 328.4 393.5zM144.4 240C144.4 231.2 147.9 223.2 153.7 217.4L122.9 207.2C114.6 204.4 110 195.3 112.8 186.9C115.6 178.6 124.7 174 133.1 176.8L229.1 208.8C237.4 211.6 241.1 220.7 239.2 229.1C236.4 237.4 227.3 241.1 218.9 239.2L208.1 235.6C208.3 237 208.4 238.5 208.4 240C208.4 257.7 194 272 176.4 272C158.7 272 144.4 257.7 144.4 240V240zM368.4 240C368.4 257.7 354 272 336.4 272C318.7 272 304.4 257.7 304.4 240C304.4 238.4 304.5 236.8 304.7 235.3L293.1 239.2C284.7 241.1 275.6 237.4 272.8 229.1C270 220.7 274.6 211.6 282.9 208.8L378.9 176.8C387.3 174 396.4 178.6 399.2 186.9C401.1 195.3 397.4 204.4 389.1 207.2L358.9 217.2C364.7 223 368.4 231.1 368.4 240H368.4zM0 256C0 114.6 114.6 0 256 0C397.4 0 512 114.6 512 256C512 397.4 397.4 512 256 512C114.6 512 0 397.4 0 256zM256 464C370.9 464 464 370.9 464 256C464 141.1 370.9 48 256 48C141.1 48 48 141.1 48 256C48 370.9 141.1 464 256 464z"></path>
  </symbol>
  <symbol id="rating-" viewBox="0 0 512 512"> <!-- face-meh-blank -->
    <path d="M208.4 208C208.4 225.7 194 240 176.4 240C158.7 240 144.4 225.7 144.4 208C144.4 190.3 158.7 176 176.4 176C194 176 208.4 190.3 208.4 208zM304.4 208C304.4 190.3 318.7 176 336.4 176C354 176 368.4 190.3 368.4 208C368.4 225.7 354 240 336.4 240C318.7 240 304.4 225.7 304.4 208zM0 256C0 114.6 114.6 0 256 0C397.4 0 512 114.6 512 256C512 397.4 397.4 512 256 512C114.6 512 0 397.4 0 256zM256 48C141.1 48 48 141.1 48 256C48 370.9 141.1 464 256 464C370.9 464 464 370.9 464 256C464 141.1 370.9 48 256 48z"></path>
  </symbol>
</svg>
